<svg xmlns="http://www.w3.org/2000/svg" width="629.344" height="824.161" viewBox="0 0 166.514 218.059"><defs><clipPath id="a" clipPathUnits="userSpaceOnUse"><path d="M-292.082 148.724h595.276v-841.89h-595.276Z"/></clipPath></defs><path d="M0 0c-.114.036-.104.038-.203.115a1.311 1.311 0 0 0-.31.329c-.452.666-.495.627-.501.958-.002.092.211-.009.283-.052.156-.098.3-.223.442-.339.156-.129.255-.203.416-.329C.02.561-.002.349-.012.172-.02.061-.017.127 0 0m-1.41 3.198c-.209.088-.41.194-.647.232.178.513.526.399.833.162.081-.062.158-.131.229-.201.121-.119.223-.237.289-.31a1.133 1.133 0 0 0-.448.03 2.029 2.029 0 0 0-.256.087M2.018-.13c.049.201.243.325.3.49a.581.581 0 0 1-.138.606s.008.015.002.028c.005.003.009.005.014.012-.053.436-.414.692-.845.491-.466.461-1.442.497-1.414 1.365.13.072.389.002.488.008-.09.46-.351.927-.961.854.249.962-1.249.475-1.455 1.058-.108-.021-.172-.102-.244-.171l-.005.025c.024.67.644.776.949.296-.056.401-.95.517-1.126.169-.217.492.268.284-.062.722-.429.542-1.148.844-1.799.995.49-.213.96-.53 1.037-1.258-.268.218-.474.183-.474.183s.2-.134.036-.368c-.038-.051-.563.033-.526-.019-.395.122-.644.684-.986.867-.644.384-1.886.66-2.549.234.729-.232 1.375-.594 1.821-1.324-.286-.032-.942-.087-.991-.475.2.045.506.073.635-.105-.753-.461-1.476-1.04-1.606-2.044.29.377.516.733.883.977.391.259.839.301 1.016.225-.887-.109-1.329-.677-1.524-1.248-.094-.275-.154-.567-.314-.795-.151-.236-.326.063-.314-.02.063-.435.285-.449.255-.563a3.815 3.815 0 0 1-.044-.531c-.012-.907 1.335-2.499.252-2.922.404-.268.867.193 1.096.473.363-.391.535-.761.985-.947l-.002-.007c.137-.158.249-1.048 1.783-1.373-.276.187-.46.431-.551.748l.026.023c.774-.425 1.232-.705 1.373-.842.472-.461.7-1.062.686-1.809-.078-.561-.353-.865-.892-1.219.205-.058.474-.002.715.083a2.63 2.63 0 0 0-.371-.58c-.299-.173-.619-.21-1.268-.012.34-.289.532-.299.665-.358-.072-.065-.585-.396-1.105-.324-.725.101-1.061.446-1.256 1.157-.056.136-.003.415.134.84.195.433.479.699.852.8-.661.051-1.266-.247-1.821-.889a3.554 3.554 0 0 1-.982.63c.018.168.318.359 1.072.348-.262.08-.775.218-1.168.239-.443.024-.915-.033-.964-.129.21.41 1.201.929 1.46.805a2.094 2.094 0 0 1-.669.174 3.3 3.3 0 0 1-.649-.025c-.741-.102-1.431-.53-2.017-.978-2.019-1.54-3.139-4.437-3.005-6.915a3.8 3.8 0 0 1 .058-.399c.013-.059.024-.093.03-.074v-.002.004c.002.007.003.02.003.038.027.281.211 1.963.943 3.316-.462-1.785.238-4.45.238-4.45-.3 1.82.017 5.179 1.81 6.212.064.031.172.08.231.106a1.668 1.668 0 0 0 2.276-1.551v-.002a1.668 1.668 0 0 0-1.621-1.666c.247-.075.518-.125.817-.148.893-.079 1.619-.07 2.173.927 0 0-.803-1.362-1.435-2.995 2.094 2.501 2.933 1.496 4.117 1.912-.135-.182-.404-.416-.834-.636.557.018 1.43.363 2.715 1.153.033-.676.057-1.262.519-1.7 0 0-.154 1.441 1.431 3.073.123-.262.082-.434-.182-1.275C.374-9.528.934-9.035 1.091-8.363c.088.373.344 1.542.346 1.895.099 1.351-.205 2.676-1.507 3.83a14.457 14.457 0 0 1-1.498 1.22c-.015.023-.032.047-.045.069.211-.067.397-.039.907.427-.622-.086-.781-.035-1.354.094A2.875 2.875 0 0 0-3-.436c-.381.235-.484.742-.666 1.148-.092.205-.203.427-.213.656 0 .021.005.057.002.076 0 0 .045-.252.573-.287.32-.021.548.312.855.342.441.041.864-.344 1.097-.559C-.938.56-.803-.101-.267-.337c.132-.058.274-.101.416-.117a.57.57 0 0 0-.007-.197c-.061-.398-.352-.394-.591-.224.101-.185.518-.436.707.19.022.077.039.155.053.233.082-.003.163-.002.245.004.074.005.762.112.61.27-.052.054-.165.037-.223.024C.75-.2.554-.154.368-.122c.034.168.081.331.189.478C.682.264.678.257.809.183c.121-.069.25-.118.383-.149.177-.039.373-.176.515.019.141.198.143.48.32.661.005.006.005.013.009.02.357-.274-.077-.561-.105-.854-.045-.474.308-.427.428-.332-.209-.045-.409.037-.341.322" clip-path="url(#a)" style="fill:#000;fill-opacity:1;fill-rule:nonzero;stroke:none" transform="matrix(10.4635 0 0 -10.4635 141.83 71.34)"/></svg>