<?xml version="1.0" encoding="utf-8"?>
<!-- Generator: Adobe Illustrator 14.0.0, SVG Export Plug-In . SVG Version: 6.00 Build 43363)  -->
<!DOCTYPE svg PUBLIC "-//W3C//DTD SVG 1.1//EN" "http://www.w3.org/Graphics/SVG/1.1/DTD/svg11.dtd">
<svg version="1.1" id="Capa_1" xmlns="http://www.w3.org/2000/svg" xmlns:xlink="http://www.w3.org/1999/xlink" x="0px" y="0px"
	 width="656px" height="224px" viewBox="0 0 656 224" enable-background="new 0 0 656 224" xml:space="preserve">
<g>
	<path fill="#231F20" d="M38.232,52.566c0-5.186-0.739-8.661-2.215-10.426c-1.477-1.764-4.375-2.647-8.697-2.647h-3.889v-6.266
		h48.401v6.266H57.031v104.799c0,7.346,1.962,12.947,5.888,16.8c3.925,3.853,9.633,5.78,17.125,5.78
		c7.563,0,13.216-2.271,16.961-6.808c3.745-4.538,5.619-11.487,5.619-20.852V52.566c0-5.257-0.722-8.751-2.161-10.48
		c-1.442-1.728-4.287-2.593-8.535-2.593h-4.106v-6.266h35.761v6.266h-14.801v102.636c0,11.454-3.025,20.259-9.075,26.417
		c-6.051,6.159-14.658,9.237-25.822,9.237c-11.741,0-20.618-3.204-26.632-9.614c-6.014-6.412-9.021-15.846-9.021-28.308V52.566z"/>
	<path fill="#231F20" d="M280.133,52.566c0-5.186-0.739-8.661-2.215-10.426c-1.477-1.764-4.375-2.647-8.697-2.647h-3.889v-6.266
		h73.144v-9.292h6.697v49.59h-6.697V64.45c0-9.003-2.198-15.412-6.592-19.232c-4.394-3.816-11.775-5.725-22.147-5.725h-10.804
		v34.249h17.286V54.295h6.591v50.022h-6.591V94.161c0-4.537-1.134-8.049-3.403-10.534c-2.269-2.485-5.421-3.727-9.453-3.727h-4.43
		v75.52c0,5.114,0.738,8.572,2.215,10.371c1.475,1.801,4.338,2.702,8.589,2.702h6.698v6.156h-51.102v-6.156h14.801V52.566z"/>
	<path fill="#231F20" d="M471.166,168.709c-5.398,3.023-11.209,5.293-17.436,6.805c-6.226,1.514-13.08,2.27-20.566,2.27
		c-22.237,0-40.519-6.97-54.84-20.904c-14.321-13.938-21.482-31.603-21.482-52.995c0-20.527,7.287-37.939,21.862-52.236
		c14.575-14.297,32.442-21.447,53.604-21.447c21.808,0,40.198,7.169,55.168,21.501c14.972,14.333,22.457,31.727,22.457,52.182
		c0,12.534-2.736,24.023-8.207,34.465c-5.473,10.445-13.284,19.087-23.435,25.931c31.903,9.146,57.02,15.411,75.352,18.799
		c18.33,3.385,35.019,5.078,50.07,5.078c5.331,0,10.262-0.2,14.8-0.596c4.539-0.396,8.821-1.025,12.856-1.89l1.944,3.563
		c-9.219,3.603-17.932,6.321-26.141,8.157c-8.212,1.837-15.846,2.756-22.903,2.756c-14.764,0-39.213-6.05-73.351-18.15
		C493.993,176.018,480.743,171.59,471.166,168.709 M469.223,161.794c7.411-4.825,13.061-11.183,16.946-19.07
		c3.886-7.886,5.829-16.87,5.829-26.956c0-9.722-1.603-19.103-4.803-28.143c-3.203-9.038-7.863-17.341-13.978-24.903
		c-6.766-8.282-14.195-14.494-22.29-18.638c-8.099-4.141-16.964-6.212-26.607-6.212c-14.537,0-26.319,5.169-35.352,15.504
		c-9.031,10.336-13.545,24.004-13.545,41.001c0,16.351,3.923,31.08,11.765,44.188c7.841,13.11,18.385,22.474,31.627,28.091v-1.079
		c0-2.954,1.277-5.24,3.832-6.862c2.555-1.621,6.205-2.43,10.955-2.43c3.526,0,7.898,0.396,13.115,1.188
		C451.933,158.265,459.434,159.706,469.223,161.794 M424.536,168.275c2.304,0.722,4.532,1.263,6.691,1.621
		c2.16,0.36,4.426,0.54,6.801,0.54c3.816,0,7.646-0.359,11.494-1.08c3.851-0.721,7.755-1.838,11.713-3.35
		c-3.886-1.081-7.629-1.907-11.225-2.485c-3.602-0.574-7.089-0.862-10.472-0.862c-3.524,0-6.477,0.449-8.849,1.349
		C428.313,164.91,426.264,166.331,424.536,168.275"/>
	<path fill="#231F20" d="M247.268,60.068c-0.029,0.036-0.057,0.071-0.084,0.109c-0.056,0.099-0.086,0.232-0.047,0.464
		c0.073,0.44,0.543,1.18,0.396,1.686c3.553,2.033-0.001,5.177,0.115,7.852c0.191,4.347,3.319,3.479,4.28,2.482
		c-1.829,0.659-3.735,0.169-3.478-2.489c0.181-1.875,1.79-3.244,2.093-4.812c0.399-2.073-0.416-4.184-2.007-5.325
		c0,0,0.056-0.13-0.013-0.235C248.202,60.141,247.561,59.874,247.268,60.068"/>
	<path fill="#231F20" d="M235.667,74.876c0.668-0.145,6.731-1.978,5.164-3.21c-0.539-0.421-1.541-0.125-2.031,0.064
		c-1.694,0.65-3.524,0.487-5.232,0.412c-0.058,1.017-0.063,2.045-0.104,3.074C234.208,75.144,234.947,75.034,235.667,74.876"/>
	<path fill="#231F20" d="M230.444,93.997c-5.756-1.251-10.827-5.272-13.204-8.274c1.988,0.356,3.63-0.14,7.647-4.991
		c-5.493,1.55-7,1.298-12.32,0.83c-2.777-0.245-5.531-0.819-8.98-2.369c-3.713-1.669-5.279-6.123-7.429-9.576
		c-1.081-1.735-2.358-3.616-2.737-5.672c-0.034-0.193-0.027-0.518-0.079-0.684c0,0,0.716,2.217,5.523,1.878
		c2.919-0.205,4.562-3.514,7.289-4.164c3.908-0.93,8.224,2.053,10.585,3.695c4.208,2.923,6.256,8.752,11.374,10.218
		c1.247,0.357,2.591,0.567,3.896,0.542c0.19,0.618,0.207,1.129,0.193,1.798c-0.065,3.679-2.697,3.993-5.053,2.751
		c1.137,1.541,5.202,3.32,6.126-2.591c0.113-0.721,0.16-1.447,0.189-2.172c-0.066,0.006-0.126,0.024-0.192,0.029l-0.503-3.133
		c0.26,0.003,0.531,0.019,0.798,0.03c0.089-1.553,0.321-3.081,1.101-4.545c1.247,0.664,1.212,0.744,2.499,1.25
		c1.173,0.459,2.4,0.752,3.644,0.864c1.624,0.143,3.579,1.14,4.606-0.818c1.033-1.968,0.69-4.517,2.068-6.379
		c0.039-0.053,0.03-0.126,0.048-0.187c-0.097-0.056-0.18-0.115-0.288-0.168c0,0-0.296-0.124-0.49-0.249
		c-0.142-0.089-0.012-1.108,0.429-1.732c0.024-0.042,0.048-0.084,0.084-0.109c0.153-0.18,0.334-0.32,0.554-0.36
		c0.462-0.086,0.637-0.007,0.701,0.092c0.04-0.042,0.084-0.076,0.111-0.138c-1.013-3.883-4.588-5.749-8.236-3.4
		c-4.77-3.585-13.614-2.709-14.452-10.606c1.091-0.809,3.517-0.486,4.389-0.668c-1.373-4.053-4.32-7.958-9.726-6.544
		c1.049-9.011-11.846-2.738-14.429-7.761c-0.956,0.306-1.425,1.123-1.988,1.843l0.05,0.171l-0.099-0.106
		c0.016-0.022,0.032-0.044,0.049-0.065l-0.067-0.221c-0.642-6.096,4.82-7.824,8.172-3.859c-1.009-3.566-9.214-3.495-10.355-0.119
		c-2.577-4.189,2.067-2.916-1.479-6.462c-4.532-4.375-11.387-6.212-17.446-6.791c4.679,1.342,9.312,3.615,10.928,10.12
		c-2.702-1.646-4.511-1.073-4.511-1.073s1.973,0.96,0.772,3.289c-0.264,0.509-5.105,0.403-4.711,0.821
		c-3.718-0.599-6.652-5.387-9.984-6.619c-6.276-2.679-17.813-3.634-23.24,1.043c6.848,1.201,13.124,3.671,18.06,9.731
		c-2.536,0.651-8.382,1.963-8.35,5.54c1.752-0.647,4.481-1.3,5.859,0.159c-6.203,5.103-12.006,11.254-11.925,20.507
		c2.708-2.547,3.841-7.183,6.746-9.944c2.132-2.122,6.141-2.859,8.874-3.303c-6.56,4.101-11.133,7.779-12.176,13.195
		c-0.501,2.609,0.331,5.432-1.834,7.595c-1.076,1.192-2.608-0.166-2.822,0.57c-0.594,1.984,2.031,2.483,3.571,3.016
		c1.594-3.154,4.013-8.923,4.272-15.355c2.209,4.443,0.72,13.599-3.303,16.785c-0.26,1.365-1.101,3.913-0.938,5.223
		c1.018,8.236,14.84,20.947,5.59,26.117c3.982,1.927,7.586-2.814,9.306-5.643c3.757,3.084,5.764,6.225,10.053,7.342l-0.002,0.079
		c1.432,1.25,3.558,9.175,17.773,10.217c-2.719-1.35-4.679-3.36-5.897-6.096l0.208-0.251c7.509,2.894,11.99,4.856,13.439,5.921
		c4.828,3.583,7.64,8.745,8.443,15.521c-0.001,5.185-2.188,9.723-6.611,13.614c3.91,0.344,11.549-6.413,11.549-6.413
		s-1.176,1.9-2.799,4.1c-5.126,5.283-6.435,8.216-16.358,6.616c3.43,2.188,5.165,2.052,6.438,2.415
		c-0.551,0.683-6.068,4.808-9.546,4.313c-6.598-0.943-10.127-2.723-12.776-8.914c-0.626-1.159-0.552-3.755,0.167-7.78
		c1.209-4.164,3.441-6.93,6.681-8.306c-6.028,0.372-11.099,3.823-15.298,10.329c-2.689-1.892-5.891-3.389-9.643-4.483
		c1.645-0.94,4.091-3.286,9.227-4.491c-2.463-0.401-7.264-0.413-10.8,0.183c-4.737,0.876-7.589,1.391-8.563,1.482
		c0.74-0.069,2.528-7.156,12.163-9.115c-1.913,0.388-4.757-0.844-6.838-0.755c-1.802,0.074-3.537,0.468-5.239,1.058
		c-6.424,2.226-12.23,6.569-16.958,11.349c-16.287,16.466-22.757,44.097-18.451,66.356c0.268,1.381,2.112,7.401,1.087,2.09
		c-1.643-10.377,1.275-18.757,4.176-27.142c0.971,23.394,5.462,24.545,14.134,31.915c-8.687-9.325-12.088-15.386-10.806-37.7
		c2.604,9.313,8.034,20.063,15.509,24.096c-6.676-7.565-17.734-26.414-9.801-35.845c-0.919,11.701,6.295,19.682,13.528,23.397
		c-1.395-1.039-2.674-2.212-3.849-3.464c-0.089-0.064-0.186-0.119-0.273-0.185c0.036,0.005,0.068,0.009,0.104,0.016
		c-9.033-9.784-10.834-25.064,3.316-33.173c15.514-8.887,19.804,18.577,16.119,23.73c-0.815-0.07-6.817-0.561-8.765-2.698
		c0.013,3.773,8.269,9.567,9.535,8.846c0,0-5.105,4.074-9.297,4.25c-1.939,0.22-5.585-0.098-10.908-0.955
		c0.055,0.059,0.114,0.112,0.169,0.169c4.414,3.23,10.221,4.629,17.426,4.168c8.147-0.384,14.684-1.375,18.442-11.096
		c0,0,0.053,0.061,0.119,0.137c0.053,0.063,0.1,0.116,0.144,0.166c0.077,0.09,0.153,0.178,0.219,0.254
		c0.024,0.026,0.048,0.055,0.065,0.073c0.041,0.049,0.067,0.079,0.069,0.081c-0.002-0.002-0.028-0.032-0.069-0.081
		c-0.017-0.019-0.041-0.047-0.065-0.073c-0.066-0.076-0.142-0.164-0.219-0.254c-0.044-0.05-0.091-0.103-0.144-0.166
		c-0.066-0.076-0.119-0.137-0.119-0.137s-5.539,13.336-9.193,28.906c15.747-25.26,24.56-17.195,34.72-22.438l0.141,0.291
		c-0.993,1.818-3.283,3.98-6.86,6.521c4.994-0.875,10.109-3.577,20.699-12.331c1.144,6.064,6.238,9.647,9.13,13.249
		c-0.475-9.414,4.922-26.557,8.595-32.916l0.451,0.868c-0.017,0.187-0.012,4.915-0.039,14.2c4.313-10.585,8.757-15.754,9.329-22.024
		c0.321-3.495,1.185-14.405,0.753-17.601C250.287,115.222,245.442,102.987,230.444,93.997 M245.308,59.568
		c0.294-0.187,1.331-1.265,1.121-1.68c0.531,1.046,0.655,2.248-0.302,3.857c-0.856,0.216-1.764,0.173-1.745-0.946
		C244.397,59.85,244.706,59.958,245.308,59.568 M240.113,60.289c1.555,0.976-0.01,3.282-1.444,2.819
		c-1.385-0.443-2.354-1.943-2.607-3.406C236.298,61.078,239.453,59.876,240.113,60.289 M221.815,60.197
		c1.539,0.673,2.98,1.632,4.417,2.516c1.567,0.961,2.544,1.522,4.159,2.466c-0.816,1.219-0.742,3.167-0.62,4.787
		c0.071,1.011,0.021,0.41,0.328,1.541c-1.074-0.179-0.989-0.221-1.976-0.804c-1.326-0.786-2.168-1.41-3.212-2.575
		c-4.9-5.462-5.245-5.068-5.708-8.056C219.073,59.24,221.116,59.896,221.815,60.197 M214.583,40.503
		c0.102-0.017,0.194-0.066,0.301-0.067c0.952-0.009,1.734,0.673,2.009,1.601c1.238,0.927,2.309,1.864,2.986,2.44
		c-1.46,0.426-2.79,0.438-4.068,0.282c-0.27,0.139-0.564,0.23-0.885,0.233c-0.603,0.004-1.142-0.269-1.531-0.702
		c-1.998-0.528-3.949-1.235-6.132-1.281C208.23,38.138,211.511,38.738,214.583,40.503 M166.05,57.729
		c-0.422,5.215,0.461,10.693,0.356,14.68c-5.348-12,0.627-24.208,6.786-24.489C172,52.162,166.36,53.895,166.05,57.729
		 M177.819,50.16c-6.247,6.916-8.511,15.342-6.65,23.367C171.169,73.526,162.458,62.159,177.819,50.16 M175.852,68.125
		c-0.115-0.519-1,3.626-2.54,8.475c-1.186-7.297,3.604-21.628,8.637-22.96c-4.24,6.036-7.28,10.47,0.575,27.957
		C179.155,75.654,176.647,71.84,175.852,68.125 M184.784,60.458c-0.838,10.926,3.877,20.794,12.679,27.608
		C197.463,88.065,178.475,82.324,184.784,60.458 M202.977,87.764c-0.515-0.165,2.92,3.261,6.75,7.859
		c-7.08-2.807-18.308-16.674-17.625-23.348c3.892,8.448,6.78,14.571,25.635,15.407C211.065,88.22,206.654,88.968,202.977,87.764"/>
	<path fill="#231F20" d="M145.326,210.09c-0.822-0.758-1.609-1.444-2.366-2.089c0.34,0.365,0.673,0.727,1.03,1.104L145.326,210.09z"
		/>
	<path fill="#231F20" d="M247.822,59.708c-0.219,0.041-0.401,0.18-0.554,0.36c0.293-0.194,0.934,0.073,1.256-0.268
		C248.46,59.701,248.284,59.624,247.822,59.708"/>
	<path fill="#231F20" d="M247.137,60.641c-0.039-0.232-0.008-0.365,0.047-0.463c-0.441,0.623-0.57,1.643-0.428,1.732
		c0.193,0.124,0.489,0.248,0.489,0.248c0.109,0.053,0.191,0.112,0.288,0.169C247.68,61.822,247.21,61.081,247.137,60.641"/>
	<path fill="#231F20" d="M233.272,75.245c0.065-0.005,0.126-0.023,0.191-0.029c0.041-1.029,0.046-2.056,0.104-3.074
		c-0.267-0.011-0.539-0.027-0.799-0.03L233.272,75.245z"/>
	<path fill="#231F20" d="M214.884,40.437c-0.107,0.001-0.199,0.05-0.301,0.067c0.8,0.459,1.583,0.991,2.309,1.534
		C216.618,41.11,215.836,40.427,214.884,40.437"/>
	<path fill="#231F20" d="M214.926,44.993c0.321-0.003,0.616-0.094,0.886-0.234c-0.822-0.1-1.626-0.259-2.417-0.468
		C213.784,44.723,214.323,44.997,214.926,44.993"/>
	<path fill="#231F20" d="M212.792,42.733c0.005,0.608,0.239,1.153,0.604,1.558c0.79,0.209,1.595,0.367,2.416,0.468
		c0.719-0.37,1.219-1.151,1.211-2.063c-0.002-0.234-0.067-0.447-0.13-0.658c-0.726-0.544-1.509-1.075-2.309-1.534
		C213.566,40.676,212.78,41.588,212.792,42.733"/>
</g>
</svg>
